<?xml version="1.0" encoding="UTF-8"?>
<svg xmlns="http://www.w3.org/2000/svg" xmlns:xlink="http://www.w3.org/1999/xlink" viewBox="0 0 500 500" width="500px" height="500px">
<g id="surface46558499">
<path style=" stroke:none;fill-rule:nonzero;fill:rgb(100%,100%,100%);fill-opacity:1;" d="M 120 30 C 70.398438 30 30 70.398438 30 120 L 30 380 C 30 429.601562 70.398438 470 120 470 L 380 470 C 429.601562 470 470 429.601562 470 380 L 470 120 C 470 70.398438 429.601562 30 380 30 Z M 380 80 L 410 80 C 415.5 80 420 84.5 420 90 L 420 120 C 420 125.5 415.5 130 410 130 L 380 130 C 374.5 130 370 125.5 370 120 L 370 90 C 370 84.5 374.5 80 380 80 Z M 250 100 C 303.300781 100 350.195312 128 376.796875 170 L 420 170 L 420 370 C 420 397.601562 397.601562 420 370 420 L 130 420 C 102.398438 420 80 397.601562 80 370 L 80 170 L 123.203125 170 C 149.804688 128 196.699219 100 250 100 Z M 250 120 C 178.300781 120 120 178.300781 120 250 C 120 321.699219 178.300781 380 250 380 C 321.699219 380 380 321.699219 380 250 C 380 178.300781 321.699219 120 250 120 Z M 250 160 C 299.601562 160 340 200.398438 340 250 C 340 299.601562 299.601562 340 250 340 C 200.398438 340 160 299.601562 160 250 C 160 200.398438 200.398438 160 250 160 Z M 250 160 "/>
</g>
</svg>
