<?xml version="1.0" encoding="UTF-8"?>
<svg xmlns="http://www.w3.org/2000/svg" xmlns:xlink="http://www.w3.org/1999/xlink" viewBox="0 0 384 384" width="384px" height="384px">
<g id="surface46557951">
<path style=" stroke:none;fill-rule:nonzero;fill:rgb(100%,100%,100%);fill-opacity:1;" d="M 304 48 L 80 48 C 62.320312 48 48 62.320312 48 80 L 48 304 C 48 321.679688 62.320312 336 80 336 L 304 336 C 321.679688 336 336 321.679688 336 304 L 336 80 C 336 62.320312 321.679688 48 304 48 Z M 123.808594 272 C 112.65625 272 103.617188 262.960938 103.617188 251.808594 L 103.617188 180.175781 C 103.632812 169.039062 112.671875 160 123.808594 160 C 134.960938 160 144 169.039062 144 180.191406 L 144 251.824219 C 144 262.960938 134.960938 272 123.808594 272 Z M 123.105469 139.472656 C 110.769531 139.472656 102.527344 131.246094 102.527344 120.273438 C 102.527344 109.296875 110.753906 101.070312 124.464844 101.070312 C 136.800781 101.070312 145.039062 109.296875 145.039062 120.273438 C 145.039062 131.246094 136.816406 139.472656 123.105469 139.472656 Z M 268.464844 272 C 257.679688 272 248.929688 263.246094 248.929688 252.464844 L 248.929688 210.785156 C 248.929688 193.855469 238.511719 192 234.609375 192 C 230.703125 192 217.679688 192.558594 217.679688 210.785156 L 217.679688 252.464844 C 217.679688 263.246094 208.929688 272 198.144531 272 L 196.847656 272 C 186.0625 272 177.3125 263.246094 177.3125 252.464844 L 177.3125 180.191406 C 177.3125 169.039062 186.351562 160 197.503906 160 C 208.65625 160 217.695312 169.039062 217.695312 180.191406 C 217.695312 180.191406 222.207031 160 252.863281 160 C 272.367188 160 288 175.632812 288 210.785156 L 288 252.464844 C 288 263.246094 279.246094 272 268.464844 272 Z M 268.464844 272 "/>
</g>
</svg>
